<svg xmlns="http://www.w3.org/2000/svg" xmlns:xlink="http://www.w3.org/1999/xlink" width="422" zoomAndPan="magnify" viewBox="0 0 316.5 130.499996" height="174" preserveAspectRatio="xMidYMid meet" version="1.0"><defs><g/><clipPath id="04be0898f5"><path d="M 3.816406 0 L 119.621094 0 L 119.621094 105.347656 L 3.816406 105.347656 Z M 3.816406 0 " clip-rule="nonzero"/></clipPath></defs><g fill="#ffffff" fill-opacity="1"><g transform="translate(109.950034, 105.392632)"><g><path d="M 20.953125 -20.21875 L 20.953125 0 L 17.109375 0 L 7.015625 -12.28125 L 7.015625 0 L 2.390625 0 L 2.390625 -20.21875 L 6.265625 -20.21875 L 16.328125 -7.9375 L 16.328125 -20.21875 Z M 20.953125 -20.21875 "/></g></g></g><g fill="#ffffff" fill-opacity="1"><g transform="translate(136.204121, 105.392632)"><g><path d="M 18.0625 -3.75 L 18.0625 0 L 2.390625 0 L 2.390625 -20.21875 L 17.6875 -20.21875 L 17.6875 -16.46875 L 7.046875 -16.46875 L 7.046875 -12.078125 L 16.4375 -12.078125 L 16.4375 -8.4375 L 7.046875 -8.4375 L 7.046875 -3.75 Z M 18.0625 -3.75 "/></g></g></g><g fill="#ffffff" fill-opacity="1"><g transform="translate(158.501444, 105.392632)"><g><path d="M 9.046875 0.34375 C 7.441406 0.34375 5.894531 0.128906 4.40625 -0.296875 C 2.914062 -0.734375 1.71875 -1.300781 0.8125 -2 L 2.390625 -5.515625 C 3.265625 -4.878906 4.296875 -4.367188 5.484375 -3.984375 C 6.679688 -3.597656 7.878906 -3.40625 9.078125 -3.40625 C 10.398438 -3.40625 11.378906 -3.601562 12.015625 -4 C 12.648438 -4.394531 12.96875 -4.921875 12.96875 -5.578125 C 12.96875 -6.054688 12.78125 -6.453125 12.40625 -6.765625 C 12.03125 -7.085938 11.546875 -7.34375 10.953125 -7.53125 C 10.367188 -7.726562 9.578125 -7.941406 8.578125 -8.171875 C 7.035156 -8.535156 5.773438 -8.898438 4.796875 -9.265625 C 3.816406 -9.640625 2.972656 -10.226562 2.265625 -11.03125 C 1.566406 -11.84375 1.21875 -12.921875 1.21875 -14.265625 C 1.21875 -15.441406 1.535156 -16.503906 2.171875 -17.453125 C 2.804688 -18.410156 3.765625 -19.164062 5.046875 -19.71875 C 6.328125 -20.28125 7.890625 -20.5625 9.734375 -20.5625 C 11.023438 -20.5625 12.285156 -20.40625 13.515625 -20.09375 C 14.753906 -19.789062 15.832031 -19.351562 16.75 -18.78125 L 15.3125 -15.21875 C 13.445312 -16.28125 11.578125 -16.8125 9.703125 -16.8125 C 8.398438 -16.8125 7.429688 -16.597656 6.796875 -16.171875 C 6.171875 -15.753906 5.859375 -15.195312 5.859375 -14.5 C 5.859375 -13.8125 6.21875 -13.296875 6.9375 -12.953125 C 7.664062 -12.617188 8.769531 -12.285156 10.25 -11.953125 C 11.789062 -11.585938 13.050781 -11.222656 14.03125 -10.859375 C 15.019531 -10.492188 15.863281 -9.914062 16.5625 -9.125 C 17.269531 -8.332031 17.625 -7.265625 17.625 -5.921875 C 17.625 -4.765625 17.300781 -3.707031 16.65625 -2.75 C 16.007812 -1.800781 15.039062 -1.046875 13.75 -0.484375 C 12.457031 0.0664062 10.890625 0.34375 9.046875 0.34375 Z M 9.046875 0.34375 "/></g></g></g><g fill="#ffffff" fill-opacity="1"><g transform="translate(179.84567, 105.392632)"><g><path d="M 6.59375 -16.40625 L 0.109375 -16.40625 L 0.109375 -20.21875 L 17.734375 -20.21875 L 17.734375 -16.40625 L 11.265625 -16.40625 L 11.265625 0 L 6.59375 0 Z M 6.59375 -16.40625 "/></g></g></g><g fill="#ffffff" fill-opacity="1"><g transform="translate(200.612272, 105.392632)"><g/></g></g><g fill="#ffffff" fill-opacity="1"><g transform="translate(211.703561, 105.392632)"><g><path d="M 12.078125 0.34375 C 10.015625 0.34375 8.148438 -0.101562 6.484375 -1 C 4.816406 -1.894531 3.503906 -3.132812 2.546875 -4.71875 C 1.597656 -6.3125 1.125 -8.109375 1.125 -10.109375 C 1.125 -12.109375 1.597656 -13.90625 2.546875 -15.5 C 3.503906 -17.09375 4.816406 -18.332031 6.484375 -19.21875 C 8.148438 -20.113281 10.023438 -20.5625 12.109375 -20.5625 C 13.859375 -20.5625 15.441406 -20.253906 16.859375 -19.640625 C 18.273438 -19.023438 19.460938 -18.140625 20.421875 -16.984375 L 17.421875 -14.21875 C 16.054688 -15.789062 14.363281 -16.578125 12.34375 -16.578125 C 11.082031 -16.578125 9.960938 -16.300781 8.984375 -15.75 C 8.003906 -15.207031 7.238281 -14.441406 6.6875 -13.453125 C 6.132812 -12.472656 5.859375 -11.359375 5.859375 -10.109375 C 5.859375 -8.859375 6.132812 -7.738281 6.6875 -6.75 C 7.238281 -5.769531 8.003906 -5.003906 8.984375 -4.453125 C 9.960938 -3.910156 11.082031 -3.640625 12.34375 -3.640625 C 14.363281 -3.640625 16.054688 -4.4375 17.421875 -6.03125 L 20.421875 -3.265625 C 19.460938 -2.085938 18.269531 -1.191406 16.84375 -0.578125 C 15.414062 0.0351562 13.828125 0.34375 12.078125 0.34375 Z M 12.078125 0.34375 "/></g></g></g><g fill="#ffffff" fill-opacity="1"><g transform="translate(235.791535, 105.392632)"><g><path d="M 15.71875 -4.328125 L 6.328125 -4.328125 L 4.53125 0 L -0.265625 0 L 8.75 -20.21875 L 13.375 -20.21875 L 22.421875 0 L 17.5 0 Z M 14.25 -7.890625 L 11.03125 -15.625 L 7.828125 -7.890625 Z M 14.25 -7.890625 "/></g></g></g><g fill="#ffffff" fill-opacity="1"><g transform="translate(260.832595, 105.392632)"><g><path d="M 2.390625 -20.21875 L 7.078125 -20.21875 L 7.078125 -3.8125 L 17.21875 -3.8125 L 17.21875 0 L 2.390625 0 Z M 2.390625 -20.21875 "/></g></g></g><g fill="#ffffff" fill-opacity="1"><g transform="translate(281.194858, 105.392632)"><g><path d="M 12.078125 0.34375 C 10.015625 0.34375 8.148438 -0.101562 6.484375 -1 C 4.816406 -1.894531 3.503906 -3.132812 2.546875 -4.71875 C 1.597656 -6.3125 1.125 -8.109375 1.125 -10.109375 C 1.125 -12.109375 1.597656 -13.90625 2.546875 -15.5 C 3.503906 -17.09375 4.816406 -18.332031 6.484375 -19.21875 C 8.148438 -20.113281 10.023438 -20.5625 12.109375 -20.5625 C 13.859375 -20.5625 15.441406 -20.253906 16.859375 -19.640625 C 18.273438 -19.023438 19.460938 -18.140625 20.421875 -16.984375 L 17.421875 -14.21875 C 16.054688 -15.789062 14.363281 -16.578125 12.34375 -16.578125 C 11.082031 -16.578125 9.960938 -16.300781 8.984375 -15.75 C 8.003906 -15.207031 7.238281 -14.441406 6.6875 -13.453125 C 6.132812 -12.472656 5.859375 -11.359375 5.859375 -10.109375 C 5.859375 -8.859375 6.132812 -7.738281 6.6875 -6.75 C 7.238281 -5.769531 8.003906 -5.003906 8.984375 -4.453125 C 9.960938 -3.910156 11.082031 -3.640625 12.34375 -3.640625 C 14.363281 -3.640625 16.054688 -4.4375 17.421875 -6.03125 L 20.421875 -3.265625 C 19.460938 -2.085938 18.269531 -1.191406 16.84375 -0.578125 C 15.414062 0.0351562 13.828125 0.34375 12.078125 0.34375 Z M 12.078125 0.34375 "/></g></g></g><g fill="#ffffff" fill-opacity="1"><g transform="translate(3.815685, 105.691494)"><g/></g></g><g fill="#ffffff" fill-opacity="1"><g transform="translate(3.815685, 122.128515)"><g><path d="M 4.609375 -8.359375 C 5.347656 -8.359375 5.988281 -8.234375 6.53125 -7.984375 C 7.082031 -7.742188 7.503906 -7.394531 7.796875 -6.9375 C 8.097656 -6.488281 8.25 -5.953125 8.25 -5.328125 C 8.25 -4.710938 8.097656 -4.175781 7.796875 -3.71875 C 7.503906 -3.257812 7.082031 -2.910156 6.53125 -2.671875 C 5.988281 -2.429688 5.347656 -2.3125 4.609375 -2.3125 L 2.921875 -2.3125 L 2.921875 0 L 0.984375 0 L 0.984375 -8.359375 Z M 4.5 -3.890625 C 5.082031 -3.890625 5.523438 -4.015625 5.828125 -4.265625 C 6.128906 -4.515625 6.28125 -4.867188 6.28125 -5.328125 C 6.28125 -5.796875 6.128906 -6.15625 5.828125 -6.40625 C 5.523438 -6.664062 5.082031 -6.796875 4.5 -6.796875 L 2.921875 -6.796875 L 2.921875 -3.890625 Z M 4.5 -3.890625 "/></g></g></g><g fill="#ffffff" fill-opacity="1"><g transform="translate(20.447278, 122.128515)"><g><path d="M 6.328125 0 L 4.703125 -2.328125 L 2.921875 -2.328125 L 2.921875 0 L 0.984375 0 L 0.984375 -8.359375 L 4.609375 -8.359375 C 5.347656 -8.359375 5.988281 -8.234375 6.53125 -7.984375 C 7.082031 -7.742188 7.503906 -7.394531 7.796875 -6.9375 C 8.097656 -6.488281 8.25 -5.953125 8.25 -5.328125 C 8.25 -4.710938 8.097656 -4.175781 7.796875 -3.71875 C 7.492188 -3.269531 7.070312 -2.925781 6.53125 -2.6875 L 8.40625 0 Z M 6.28125 -5.328125 C 6.28125 -5.796875 6.128906 -6.15625 5.828125 -6.40625 C 5.523438 -6.664062 5.082031 -6.796875 4.5 -6.796875 L 2.921875 -6.796875 L 2.921875 -3.875 L 4.5 -3.875 C 5.082031 -3.875 5.523438 -4 5.828125 -4.25 C 6.128906 -4.507812 6.28125 -4.867188 6.28125 -5.328125 Z M 6.28125 -5.328125 "/></g></g></g><g fill="#ffffff" fill-opacity="1"><g transform="translate(37.114702, 122.128515)"><g><path d="M 5.046875 0.140625 C 4.171875 0.140625 3.382812 -0.046875 2.6875 -0.421875 C 2 -0.796875 1.457031 -1.3125 1.0625 -1.96875 C 0.664062 -2.625 0.46875 -3.363281 0.46875 -4.1875 C 0.46875 -5.007812 0.664062 -5.75 1.0625 -6.40625 C 1.457031 -7.0625 2 -7.578125 2.6875 -7.953125 C 3.382812 -8.328125 4.171875 -8.515625 5.046875 -8.515625 C 5.910156 -8.515625 6.6875 -8.328125 7.375 -7.953125 C 8.070312 -7.578125 8.617188 -7.0625 9.015625 -6.40625 C 9.421875 -5.75 9.625 -5.007812 9.625 -4.1875 C 9.625 -3.363281 9.421875 -2.625 9.015625 -1.96875 C 8.617188 -1.3125 8.070312 -0.796875 7.375 -0.421875 C 6.6875 -0.046875 5.910156 0.140625 5.046875 0.140625 Z M 5.046875 -1.5 C 5.535156 -1.5 5.976562 -1.613281 6.375 -1.84375 C 6.78125 -2.070312 7.09375 -2.390625 7.3125 -2.796875 C 7.539062 -3.203125 7.65625 -3.664062 7.65625 -4.1875 C 7.65625 -4.695312 7.539062 -5.15625 7.3125 -5.5625 C 7.09375 -5.976562 6.78125 -6.296875 6.375 -6.515625 C 5.976562 -6.742188 5.535156 -6.859375 5.046875 -6.859375 C 4.546875 -6.859375 4.097656 -6.742188 3.703125 -6.515625 C 3.304688 -6.296875 2.992188 -5.976562 2.765625 -5.5625 C 2.535156 -5.15625 2.421875 -4.695312 2.421875 -4.1875 C 2.421875 -3.664062 2.535156 -3.203125 2.765625 -2.796875 C 2.992188 -2.390625 3.304688 -2.070312 3.703125 -1.84375 C 4.097656 -1.613281 4.546875 -1.5 5.046875 -1.5 Z M 5.046875 -1.5 "/></g></g></g><g fill="#ffffff" fill-opacity="1"><g transform="translate(55.083859, 122.128515)"><g><path d="M 4.609375 -8.359375 C 5.347656 -8.359375 5.988281 -8.234375 6.53125 -7.984375 C 7.082031 -7.742188 7.503906 -7.394531 7.796875 -6.9375 C 8.097656 -6.488281 8.25 -5.953125 8.25 -5.328125 C 8.25 -4.710938 8.097656 -4.175781 7.796875 -3.71875 C 7.503906 -3.257812 7.082031 -2.910156 6.53125 -2.671875 C 5.988281 -2.429688 5.347656 -2.3125 4.609375 -2.3125 L 2.921875 -2.3125 L 2.921875 0 L 0.984375 0 L 0.984375 -8.359375 Z M 4.5 -3.890625 C 5.082031 -3.890625 5.523438 -4.015625 5.828125 -4.265625 C 6.128906 -4.515625 6.28125 -4.867188 6.28125 -5.328125 C 6.28125 -5.796875 6.128906 -6.15625 5.828125 -6.40625 C 5.523438 -6.664062 5.082031 -6.796875 4.5 -6.796875 L 2.921875 -6.796875 L 2.921875 -3.890625 Z M 4.5 -3.890625 "/></g></g></g><g fill="#ffffff" fill-opacity="1"><g transform="translate(71.715451, 122.128515)"><g><path d="M 7.46875 -1.546875 L 7.46875 0 L 0.984375 0 L 0.984375 -8.359375 L 7.3125 -8.359375 L 7.3125 -6.8125 L 2.921875 -6.8125 L 2.921875 -5 L 6.796875 -5 L 6.796875 -3.484375 L 2.921875 -3.484375 L 2.921875 -1.546875 Z M 7.46875 -1.546875 "/></g></g></g><g fill="#ffffff" fill-opacity="1"><g transform="translate(87.618557, 122.128515)"><g><path d="M 6.328125 0 L 4.703125 -2.328125 L 2.921875 -2.328125 L 2.921875 0 L 0.984375 0 L 0.984375 -8.359375 L 4.609375 -8.359375 C 5.347656 -8.359375 5.988281 -8.234375 6.53125 -7.984375 C 7.082031 -7.742188 7.503906 -7.394531 7.796875 -6.9375 C 8.097656 -6.488281 8.25 -5.953125 8.25 -5.328125 C 8.25 -4.710938 8.097656 -4.175781 7.796875 -3.71875 C 7.492188 -3.269531 7.070312 -2.925781 6.53125 -2.6875 L 8.40625 0 Z M 6.28125 -5.328125 C 6.28125 -5.796875 6.128906 -6.15625 5.828125 -6.40625 C 5.523438 -6.664062 5.082031 -6.796875 4.5 -6.796875 L 2.921875 -6.796875 L 2.921875 -3.875 L 4.5 -3.875 C 5.082031 -3.875 5.523438 -4 5.828125 -4.25 C 6.128906 -4.507812 6.28125 -4.867188 6.28125 -5.328125 Z M 6.28125 -5.328125 "/></g></g></g><g fill="#ffffff" fill-opacity="1"><g transform="translate(104.285981, 122.128515)"><g><path d="M 2.71875 -6.796875 L 0.046875 -6.796875 L 0.046875 -8.359375 L 7.34375 -8.359375 L 7.34375 -6.796875 L 4.65625 -6.796875 L 4.65625 0 L 2.71875 0 Z M 2.71875 -6.796875 "/></g></g></g><g fill="#ffffff" fill-opacity="1"><g transform="translate(119.556137, 122.128515)"><g><path d="M 5.015625 -2.96875 L 5.015625 0 L 3.078125 0 L 3.078125 -2.984375 L -0.171875 -8.359375 L 1.890625 -8.359375 L 4.125 -4.65625 L 6.359375 -8.359375 L 8.265625 -8.359375 Z M 5.015625 -2.96875 "/></g></g></g><g fill="#ffffff" fill-opacity="1"><g transform="translate(135.518959, 122.128515)"><g><path d="M 1.5625 0.09375 C 1.238281 0.09375 0.960938 -0.015625 0.734375 -0.234375 C 0.515625 -0.460938 0.40625 -0.742188 0.40625 -1.078125 C 0.40625 -1.421875 0.515625 -1.695312 0.734375 -1.90625 C 0.960938 -2.113281 1.238281 -2.21875 1.5625 -2.21875 C 1.894531 -2.21875 2.171875 -2.113281 2.390625 -1.90625 C 2.609375 -1.695312 2.71875 -1.421875 2.71875 -1.078125 C 2.71875 -0.742188 2.609375 -0.460938 2.390625 -0.234375 C 2.171875 -0.015625 1.894531 0.09375 1.5625 0.09375 Z M 1.5625 0.09375 "/></g></g></g><g fill="#ffffff" fill-opacity="1"><g transform="translate(146.542267, 122.128515)"><g><path d="M 3.171875 0.078125 C 2.566406 0.078125 1.984375 -0.0195312 1.421875 -0.21875 C 0.859375 -0.425781 0.429688 -0.679688 0.140625 -0.984375 L 0.578125 -1.6875 C 0.847656 -1.382812 1.226562 -1.140625 1.71875 -0.953125 C 2.21875 -0.773438 2.734375 -0.6875 3.265625 -0.6875 C 4.003906 -0.6875 4.597656 -0.828125 5.046875 -1.109375 C 5.492188 -1.398438 5.71875 -1.804688 5.71875 -2.328125 C 5.71875 -2.609375 5.632812 -2.835938 5.46875 -3.015625 C 5.300781 -3.191406 5.085938 -3.332031 4.828125 -3.4375 C 4.578125 -3.539062 4.234375 -3.660156 3.796875 -3.796875 C 3.285156 -3.941406 2.867188 -4.082031 2.546875 -4.21875 C 2.222656 -4.363281 1.945312 -4.570312 1.71875 -4.84375 C 1.488281 -5.125 1.375 -5.484375 1.375 -5.921875 C 1.375 -6.429688 1.515625 -6.875 1.796875 -7.25 C 2.078125 -7.632812 2.46875 -7.925781 2.96875 -8.125 C 3.476562 -8.332031 4.0625 -8.4375 4.71875 -8.4375 C 5.21875 -8.4375 5.695312 -8.375 6.15625 -8.25 C 6.613281 -8.125 7 -7.945312 7.3125 -7.71875 L 6.9375 -7 C 6.632812 -7.226562 6.285156 -7.398438 5.890625 -7.515625 C 5.503906 -7.628906 5.097656 -7.6875 4.671875 -7.6875 C 3.941406 -7.6875 3.351562 -7.535156 2.90625 -7.234375 C 2.457031 -6.929688 2.234375 -6.519531 2.234375 -6 C 2.234375 -5.707031 2.320312 -5.46875 2.5 -5.28125 C 2.675781 -5.101562 2.890625 -4.960938 3.140625 -4.859375 C 3.398438 -4.753906 3.753906 -4.632812 4.203125 -4.5 C 4.710938 -4.351562 5.125 -4.207031 5.4375 -4.0625 C 5.757812 -3.925781 6.03125 -3.726562 6.25 -3.46875 C 6.476562 -3.207031 6.59375 -2.867188 6.59375 -2.453125 C 6.59375 -1.921875 6.445312 -1.46875 6.15625 -1.09375 C 5.863281 -0.71875 5.460938 -0.425781 4.953125 -0.21875 C 4.441406 -0.0195312 3.847656 0.078125 3.171875 0.078125 Z M 3.171875 0.078125 "/></g></g></g><g fill="#ffffff" fill-opacity="1"><g transform="translate(161.776591, 122.128515)"><g><path d="M 2.421875 -8.359375 L 3.28125 -8.359375 L 1.609375 0 L 0.734375 0 Z M 2.421875 -8.359375 "/></g></g></g><g fill="#ffffff" fill-opacity="1"><g transform="translate(173.272925, 122.128515)"><g><path d="M 11.109375 -8.359375 L 9.4375 0 L 8.578125 0 L 9.90625 -6.640625 L 5.578125 -1.0625 L 5.15625 -1.0625 L 2.921875 -6.734375 L 1.59375 0 L 0.734375 0 L 2.421875 -8.359375 L 3.125 -8.359375 L 5.546875 -2.15625 L 10.328125 -8.359375 Z M 11.109375 -8.359375 "/></g></g></g><g fill="#ffffff" fill-opacity="1"><g transform="translate(192.567688, 122.128515)"><g><path d="M 5.421875 -8.359375 C 6.359375 -8.359375 7.085938 -8.148438 7.609375 -7.734375 C 8.140625 -7.328125 8.40625 -6.75 8.40625 -6 C 8.40625 -4.9375 8.054688 -4.109375 7.359375 -3.515625 C 6.671875 -2.929688 5.722656 -2.640625 4.515625 -2.640625 L 2.15625 -2.640625 L 1.609375 0 L 0.734375 0 L 2.421875 -8.359375 Z M 4.53125 -3.421875 C 5.488281 -3.421875 6.222656 -3.628906 6.734375 -4.046875 C 7.253906 -4.472656 7.515625 -5.097656 7.515625 -5.921875 C 7.515625 -6.460938 7.328125 -6.878906 6.953125 -7.171875 C 6.578125 -7.460938 6.039062 -7.609375 5.34375 -7.609375 L 3.140625 -7.609375 L 2.296875 -3.421875 Z M 4.53125 -3.421875 "/></g></g></g><g fill="#ffffff" fill-opacity="1"><g transform="translate(209.032094, 122.128515)"><g><path d="M 2.421875 -8.359375 L 3.28125 -8.359375 L 1.765625 -0.765625 L 6.453125 -0.765625 L 6.296875 0 L 0.734375 0 Z M 2.421875 -8.359375 "/></g></g></g><g fill="#ffffff" fill-opacity="1"><g transform="translate(223.955916, 122.128515)"><g><path d="M 2.421875 -8.359375 L 3.28125 -8.359375 L 1.609375 0 L 0.734375 0 Z M 2.421875 -8.359375 "/></g></g></g><g fill="#ffffff" fill-opacity="1"><g transform="translate(235.452251, 122.128515)"><g><path d="M 3.125 -7.609375 L 2.46875 -4.3125 L 6.8125 -4.3125 L 6.65625 -3.546875 L 2.3125 -3.546875 L 1.609375 0 L 0.734375 0 L 2.421875 -8.359375 L 8.15625 -8.359375 L 8 -7.609375 Z M 3.125 -7.609375 "/></g></g></g><g fill="#ffffff" fill-opacity="1"><g transform="translate(250.901541, 122.128515)"><g><path d="M 2.421875 -8.359375 L 3.28125 -8.359375 L 1.609375 0 L 0.734375 0 Z M 2.421875 -8.359375 "/></g></g></g><g fill="#ffffff" fill-opacity="1"><g transform="translate(262.397875, 122.128515)"><g><path d="M 3.125 -7.609375 L 2.53125 -4.625 L 6.875 -4.625 L 6.734375 -3.875 L 2.390625 -3.875 L 1.765625 -0.765625 L 6.796875 -0.765625 L 6.640625 0 L 0.734375 0 L 2.421875 -8.359375 L 8.15625 -8.359375 L 8 -7.609375 Z M 3.125 -7.609375 "/></g></g></g><g fill="#ffffff" fill-opacity="1"><g transform="translate(278.277098, 122.128515)"><g><path d="M 2.421875 -8.359375 L 5.59375 -8.359375 C 6.425781 -8.359375 7.140625 -8.21875 7.734375 -7.9375 C 8.328125 -7.664062 8.773438 -7.269531 9.078125 -6.75 C 9.378906 -6.238281 9.53125 -5.640625 9.53125 -4.953125 C 9.53125 -3.984375 9.316406 -3.125 8.890625 -2.375 C 8.460938 -1.625 7.851562 -1.039062 7.0625 -0.625 C 6.28125 -0.207031 5.375 0 4.34375 0 L 0.734375 0 Z M 4.359375 -0.765625 C 5.234375 -0.765625 5.992188 -0.941406 6.640625 -1.296875 C 7.285156 -1.648438 7.78125 -2.140625 8.125 -2.765625 C 8.476562 -3.398438 8.65625 -4.117188 8.65625 -4.921875 C 8.65625 -5.753906 8.382812 -6.410156 7.84375 -6.890625 C 7.3125 -7.367188 6.53125 -7.609375 5.5 -7.609375 L 3.125 -7.609375 L 1.765625 -0.765625 Z M 4.359375 -0.765625 "/></g></g></g><g fill="#ffffff" fill-opacity="1"><g transform="translate(296.031289, 122.128515)"><g><path d="M 2.09375 -8.359375 L 3.09375 -8.359375 L 1.75 -2.515625 L 1.09375 -2.515625 Z M 1.015625 0.0625 C 0.847656 0.0625 0.703125 0.00390625 0.578125 -0.109375 C 0.460938 -0.222656 0.40625 -0.363281 0.40625 -0.53125 C 0.40625 -0.707031 0.46875 -0.859375 0.59375 -0.984375 C 0.71875 -1.109375 0.867188 -1.171875 1.046875 -1.171875 C 1.222656 -1.171875 1.367188 -1.113281 1.484375 -1 C 1.597656 -0.894531 1.65625 -0.757812 1.65625 -0.59375 C 1.65625 -0.414062 1.59375 -0.257812 1.46875 -0.125 C 1.351562 0 1.203125 0.0625 1.015625 0.0625 Z M 1.015625 0.0625 "/></g></g></g><g clip-path="url(#04be0898f5)"><path fill="#ffffff" d="M 36.425781 104.269531 L 36.425781 105.085938 L 54.363281 105.085938 L 54.363281 30.382812 L 101.640625 57.675781 L 101.640625 103.453125 L 86.976562 103.453125 L 86.976562 60.042969 L 85.34375 60.042969 L 85.34375 103.453125 L 73.527344 103.453125 L 73.527344 105.085938 L 110.609375 105.085938 L 110.609375 103.453125 L 103.273438 103.453125 L 103.273438 58.617188 L 118.363281 67.328125 L 119.179688 65.914062 L 103.273438 56.734375 L 103.273438 39.785156 L 111.488281 44.527344 L 112.304688 43.117188 L 103.273438 37.902344 L 103.273438 27.699219 L 101.640625 27.699219 L 101.640625 36.960938 L 37.648438 0.0234375 L 36.835938 1.433594 L 51.914062 10.140625 L 36.84375 18.839844 L 36.4375 19.074219 L 36.4375 19.546875 C 36.4375 19.546875 36.429688 36.96875 36.429688 36.96875 L 21.335938 28.265625 L 20.925781 28.03125 L 20.519531 28.265625 L 4.222656 37.671875 L 3.816406 37.90625 L 3.816406 105.085938 L 21.753906 105.085938 L 21.753906 49.214844 L 36.425781 57.683594 Z M 101.640625 55.792969 L 54.363281 28.5 L 54.363281 11.550781 L 101.640625 38.84375 Z M 101.640625 55.792969 " fill-opacity="1" fill-rule="nonzero"/></g></svg>