<svg xmlns="http://www.w3.org/2000/svg" xmlns:xlink="http://www.w3.org/1999/xlink" width="58" zoomAndPan="magnify" viewBox="0 0 43.5 45.749999" height="61" preserveAspectRatio="xMidYMid meet" version="1.0"><defs><clipPath id="dd2827e4e8"><path d="M 0 0.136719 L 43 0.136719 L 43 44.625 L 0 44.625 Z M 0 0.136719 " clip-rule="nonzero"/></clipPath></defs><g clip-path="url(#dd2827e4e8)"><path fill="#240909" d="M 3.917969 23.84375 L 7.832031 21.574219 L 11.746094 19.328125 L 21.472656 13.707031 L 31.199219 19.328125 L 35.113281 21.574219 L 39.046875 23.84375 L 42.964844 26.085938 L 42.964844 23.960938 L 21.480469 11.578125 L 21.480469 9.183594 L 7.839844 17.050781 L 3.925781 19.320312 L 3.925781 14.796875 L 21.480469 4.660156 L 39.058594 14.796875 L 42.972656 17.039062 L 42.972656 14.671875 L 21.480469 2.28125 L 21.480469 0.136719 L 10.753906 6.324219 L 0.0078125 12.527344 L 0.0078125 35.144531 L 3.925781 32.871094 L 7.839844 30.628906 L 11.757812 28.359375 L 15.671875 26.085938 L 19.585938 23.84375 L 21.480469 22.746094 L 23.378906 23.84375 L 27.292969 26.085938 L 31.207031 28.359375 L 35.125 30.628906 L 39.058594 32.871094 L 42.972656 35.144531 L 42.972656 33.246094 L 21.492188 20.839844 L 21.492188 18.222656 L 15.679688 21.574219 L 11.765625 23.84375 L 7.847656 26.085938 L 3.933594 28.359375 L 3.933594 23.84375 Z M 21.078125 44.832031 L 21.078125 42.105469 L 18.371094 42.105469 L 18.371094 44.832031 Z M 24.601562 42.105469 L 21.875 42.105469 L 21.875 44.832031 L 24.601562 44.832031 Z M 21.882812 38.585938 L 21.882812 41.3125 L 24.609375 41.3125 L 24.609375 38.585938 Z M 18.378906 41.3125 L 21.089844 41.3125 L 21.089844 38.585938 L 18.378906 38.585938 Z M 33.238281 38.425781 L 37.152344 40.695312 L 41.070312 38.425781 L 37.152344 36.179688 L 33.238281 33.910156 L 29.304688 31.664062 L 25.390625 29.394531 L 21.472656 27.125 L 17.558594 29.394531 L 13.640625 31.664062 L 9.726562 33.910156 L 5.8125 36.179688 L 1.886719 38.425781 L 5.800781 40.695312 L 9.71875 38.425781 L 13.632812 36.179688 L 17.550781 33.910156 L 21.464844 31.664062 L 25.378906 33.910156 L 29.296875 36.179688 Z M 33.238281 38.425781 " fill-opacity="1" fill-rule="evenodd"/><path fill="#240909" d="M 3.917969 23.84375 L 7.832031 21.574219 L 11.746094 19.328125 L 21.472656 13.707031 L 31.199219 19.328125 L 35.113281 21.574219 L 39.046875 23.84375 L 42.964844 26.085938 L 42.964844 23.960938 L 21.480469 11.578125 L 21.480469 9.183594 L 7.839844 17.050781 L 3.925781 19.320312 L 3.925781 14.796875 L 21.480469 4.660156 L 39.058594 14.796875 L 42.972656 17.039062 L 42.972656 14.671875 L 21.480469 2.28125 L 21.480469 0.136719 L 10.753906 6.324219 L 0.0078125 12.527344 L 0.0078125 35.144531 L 3.925781 32.871094 L 7.839844 30.628906 L 11.757812 28.359375 L 15.671875 26.085938 L 19.585938 23.84375 L 21.480469 22.746094 L 23.378906 23.84375 L 27.292969 26.085938 L 31.207031 28.359375 L 35.125 30.628906 L 39.058594 32.871094 L 42.972656 35.144531 L 42.972656 33.246094 L 21.492188 20.839844 L 21.492188 18.222656 L 15.679688 21.574219 L 11.765625 23.84375 L 7.847656 26.085938 L 3.933594 28.359375 L 3.933594 23.84375 Z M 21.078125 44.832031 L 21.078125 42.105469 L 18.371094 42.105469 L 18.371094 44.832031 Z M 24.601562 42.105469 L 21.875 42.105469 L 21.875 44.832031 L 24.601562 44.832031 Z M 21.882812 38.585938 L 21.882812 41.3125 L 24.609375 41.3125 L 24.609375 38.585938 Z M 18.378906 41.3125 L 21.089844 41.3125 L 21.089844 38.585938 L 18.378906 38.585938 Z M 33.238281 38.425781 L 37.152344 40.695312 L 41.070312 38.425781 L 37.152344 36.179688 L 33.238281 33.910156 L 29.304688 31.664062 L 25.390625 29.394531 L 21.472656 27.125 L 17.558594 29.394531 L 13.640625 31.664062 L 9.726562 33.910156 L 5.8125 36.179688 L 1.886719 38.425781 L 5.800781 40.695312 L 9.71875 38.425781 L 13.632812 36.179688 L 17.550781 33.910156 L 21.464844 31.664062 L 25.378906 33.910156 L 29.296875 36.179688 Z M 33.238281 38.425781 " fill-opacity="1" fill-rule="evenodd"/></g></svg>