<svg xmlns="http://www.w3.org/2000/svg" xmlns:xlink="http://www.w3.org/1999/xlink" width="269" zoomAndPan="magnify" viewBox="0 0 201.75 54.75" height="73" preserveAspectRatio="xMidYMid meet" version="1.0"><defs><g/><clipPath id="a4684b6a4e"><path d="M 0.335938 6.40625 L 43.632812 6.40625 L 43.632812 51.203125 L 0.335938 51.203125 Z M 0.335938 6.40625 " clip-rule="nonzero"/></clipPath></defs><g fill="#ffffff" fill-opacity="1"><g transform="translate(49.23621, 35.672114)"><g><path d="M 13.40625 -20.421875 L 13.40625 -17.4375 C 13.40625 -17.101562 13.242188 -16.9375 12.921875 -16.9375 L 5.546875 -16.9375 L 5.546875 -12.328125 L 11.171875 -12.328125 C 11.484375 -12.328125 11.640625 -12.160156 11.640625 -11.828125 L 11.640625 -8.875 C 11.640625 -8.53125 11.484375 -8.359375 11.171875 -8.359375 L 5.546875 -8.359375 L 5.546875 -3.9375 L 12.921875 -3.9375 C 13.242188 -3.9375 13.40625 -3.78125 13.40625 -3.46875 L 13.40625 -0.484375 C 13.40625 -0.160156 13.242188 0 12.921875 0 L 1.9375 0 C 1.644531 0 1.5 -0.160156 1.5 -0.484375 L 1.5 -20.421875 C 1.5 -20.742188 1.644531 -20.90625 1.9375 -20.90625 L 12.921875 -20.90625 C 13.242188 -20.90625 13.40625 -20.742188 13.40625 -20.421875 Z M 13.40625 -20.421875 "/></g></g></g><g fill="#ffffff" fill-opacity="1"><g transform="translate(70.110873, 35.672114)"><g><path d="M 5.796875 -20.90625 L 9.140625 -20.90625 C 10.546875 -20.90625 11.613281 -20.539062 12.34375 -19.8125 C 13.070312 -19.082031 13.4375 -18.015625 13.4375 -16.609375 L 13.4375 -14.625 C 13.4375 -14.3125 13.273438 -14.15625 12.953125 -14.15625 L 9.9375 -14.15625 C 9.625 -14.15625 9.46875 -14.3125 9.46875 -14.625 L 9.46875 -15.890625 C 9.46875 -16.679688 9.066406 -17.078125 8.265625 -17.078125 L 6.625 -17.078125 C 5.832031 -17.078125 5.4375 -16.679688 5.4375 -15.890625 L 5.4375 -13.34375 L 12.65625 -11.015625 C 13.175781 -10.835938 13.4375 -10.46875 13.4375 -9.90625 L 13.4375 -4.296875 C 13.4375 -2.898438 13.070312 -1.832031 12.34375 -1.09375 C 11.613281 -0.363281 10.546875 0 9.140625 0 L 5.796875 0 C 4.398438 0 3.332031 -0.363281 2.59375 -1.09375 C 1.863281 -1.832031 1.5 -2.898438 1.5 -4.296875 L 1.5 -6.234375 C 1.5 -6.554688 1.65625 -6.71875 1.96875 -6.71875 L 4.984375 -6.71875 C 5.304688 -6.71875 5.46875 -6.554688 5.46875 -6.234375 L 5.46875 -4.984375 C 5.46875 -4.191406 5.863281 -3.796875 6.65625 -3.796875 L 8.265625 -3.796875 C 9.066406 -3.796875 9.46875 -4.191406 9.46875 -4.984375 L 9.46875 -8 L 2.296875 -10.328125 C 1.765625 -10.503906 1.5 -10.875 1.5 -11.4375 L 1.5 -16.609375 C 1.5 -18.015625 1.863281 -19.082031 2.59375 -19.8125 C 3.332031 -20.539062 4.398438 -20.90625 5.796875 -20.90625 Z M 5.796875 -20.90625 "/></g></g></g><g fill="#ffffff" fill-opacity="1"><g transform="translate(91.015407, 35.672114)"><g><path d="M 12.359375 -20.90625 L 1.375 -20.90625 C 1.050781 -20.90625 0.890625 -20.742188 0.890625 -20.421875 L 0.890625 -17.4375 C 0.890625 -17.113281 1.050781 -16.953125 1.375 -16.953125 L 4.84375 -16.953125 L 4.84375 -0.484375 C 4.84375 -0.160156 5 0 5.3125 0 L 8.421875 0 C 8.734375 0 8.890625 -0.160156 8.890625 -0.484375 L 8.890625 -16.953125 L 12.359375 -16.953125 C 12.679688 -16.953125 12.84375 -17.113281 12.84375 -17.4375 L 12.84375 -20.421875 C 12.84375 -20.742188 12.679688 -20.90625 12.359375 -20.90625 Z M 12.359375 -20.90625 "/></g></g></g><g fill="#ffffff" fill-opacity="1"><g transform="translate(110.72539, 35.672114)"><g><path d="M 15.59375 0 L 12.6875 0 C 12.425781 0 12.269531 -0.140625 12.21875 -0.421875 L 11.25 -4.1875 L 5.640625 -4.1875 L 4.71875 -0.421875 C 4.65625 -0.140625 4.492188 0 4.234375 0 L 1.3125 0 C 0.957031 0 0.828125 -0.164062 0.921875 -0.5 L 5.875 -20.484375 C 5.9375 -20.765625 6.109375 -20.90625 6.390625 -20.90625 L 10.546875 -20.90625 C 10.816406 -20.90625 10.984375 -20.765625 11.046875 -20.484375 L 16 -0.5 C 16.101562 -0.164062 15.96875 0 15.59375 0 Z M 10.328125 -7.640625 L 8.453125 -15.765625 L 6.5625 -7.640625 Z M 10.328125 -7.640625 "/></g></g></g><g fill="#ffffff" fill-opacity="1"><g transform="translate(133.630781, 35.672114)"><g><path d="M 12.359375 -20.90625 L 1.375 -20.90625 C 1.050781 -20.90625 0.890625 -20.742188 0.890625 -20.421875 L 0.890625 -17.4375 C 0.890625 -17.113281 1.050781 -16.953125 1.375 -16.953125 L 4.84375 -16.953125 L 4.84375 -0.484375 C 4.84375 -0.160156 5 0 5.3125 0 L 8.421875 0 C 8.734375 0 8.890625 -0.160156 8.890625 -0.484375 L 8.890625 -16.953125 L 12.359375 -16.953125 C 12.679688 -16.953125 12.84375 -17.113281 12.84375 -17.4375 L 12.84375 -20.421875 C 12.84375 -20.742188 12.679688 -20.90625 12.359375 -20.90625 Z M 12.359375 -20.90625 "/></g></g></g><g fill="#ffffff" fill-opacity="1"><g transform="translate(153.340765, 35.672114)"><g><path d="M 13.4375 -16.609375 L 13.4375 -10.59375 C 13.4375 -8.863281 12.878906 -7.648438 11.765625 -6.953125 L 13.3125 -0.53125 C 13.414062 -0.175781 13.28125 0 12.90625 0 L 9.96875 0 C 9.695312 0 9.53125 -0.140625 9.46875 -0.421875 L 8.03125 -6.296875 L 5.375 -6.296875 L 5.375 -0.484375 C 5.375 -0.160156 5.210938 0 4.890625 0 L 1.96875 0 C 1.65625 0 1.5 -0.160156 1.5 -0.484375 L 1.5 -20.421875 C 1.5 -20.742188 1.65625 -20.90625 1.96875 -20.90625 L 9.140625 -20.90625 C 10.546875 -20.90625 11.613281 -20.539062 12.34375 -19.8125 C 13.070312 -19.082031 13.4375 -18.015625 13.4375 -16.609375 Z M 5.375 -10.15625 L 8.359375 -10.15625 C 9.160156 -10.15625 9.5625 -10.550781 9.5625 -11.34375 L 9.5625 -15.859375 C 9.5625 -16.648438 9.160156 -17.046875 8.359375 -17.046875 L 5.375 -17.046875 Z M 5.375 -10.15625 "/></g></g></g><g fill="#ffffff" fill-opacity="1"><g transform="translate(174.245298, 35.672114)"><g><path d="M 15.59375 0 L 12.6875 0 C 12.425781 0 12.269531 -0.140625 12.21875 -0.421875 L 11.25 -4.1875 L 5.640625 -4.1875 L 4.71875 -0.421875 C 4.65625 -0.140625 4.492188 0 4.234375 0 L 1.3125 0 C 0.957031 0 0.828125 -0.164062 0.921875 -0.5 L 5.875 -20.484375 C 5.9375 -20.765625 6.109375 -20.90625 6.390625 -20.90625 L 10.546875 -20.90625 C 10.816406 -20.90625 10.984375 -20.765625 11.046875 -20.484375 L 16 -0.5 C 16.101562 -0.164062 15.96875 0 15.59375 0 Z M 10.328125 -7.640625 L 8.453125 -15.765625 L 6.5625 -7.640625 Z M 10.328125 -7.640625 "/></g></g></g><g clip-path="url(#a4684b6a4e)"><path fill="#ffffff" d="M 4.277344 30.277344 L 8.222656 27.992188 L 12.164062 25.730469 L 21.957031 20.070312 L 31.75 25.730469 L 35.691406 27.992188 L 39.652344 30.277344 L 43.597656 32.535156 L 43.597656 30.394531 L 21.964844 17.925781 L 21.964844 15.515625 L 8.230469 23.4375 L 4.289062 25.722656 L 4.289062 21.167969 L 21.964844 10.960938 L 39.664062 21.167969 L 43.605469 23.425781 L 43.605469 21.042969 L 21.964844 8.566406 L 21.964844 6.40625 L 11.164062 12.632812 L 0.34375 18.882812 L 0.34375 41.652344 L 4.289062 39.367188 L 8.230469 37.109375 L 12.171875 34.820312 L 16.117188 32.535156 L 20.058594 30.277344 L 21.964844 29.167969 L 23.875 30.277344 L 27.816406 32.535156 L 31.757812 34.820312 L 35.703125 37.109375 L 39.664062 39.367188 L 43.605469 41.652344 L 43.605469 39.746094 L 21.976562 27.253906 L 21.976562 24.613281 L 16.125 27.992188 L 12.183594 30.277344 L 8.238281 32.535156 L 4.296875 34.820312 L 4.296875 30.277344 Z M 21.5625 51.410156 L 21.5625 48.664062 L 18.832031 48.664062 L 18.832031 51.410156 Z M 25.109375 48.664062 L 22.363281 48.664062 L 22.363281 51.410156 L 25.109375 51.410156 Z M 22.371094 45.121094 L 22.371094 47.863281 L 25.117188 47.863281 L 25.117188 45.121094 Z M 18.84375 47.863281 L 21.570312 47.863281 L 21.570312 45.121094 L 18.84375 45.121094 Z M 33.800781 44.957031 L 37.746094 47.242188 L 41.6875 44.957031 L 37.746094 42.699219 L 33.800781 40.410156 L 29.84375 38.152344 L 25.898438 35.867188 L 21.957031 33.578125 L 18.015625 35.867188 L 14.074219 38.152344 L 10.128906 40.410156 L 6.1875 42.699219 L 2.234375 44.957031 L 6.179688 47.242188 L 10.121094 44.957031 L 14.0625 42.699219 L 18.003906 40.410156 L 21.949219 38.152344 L 25.890625 40.410156 L 29.832031 42.699219 Z M 33.800781 44.957031 " fill-opacity="1" fill-rule="evenodd"/></g><g fill="#ffffff" fill-opacity="1"><g transform="translate(49.671054, 49.423655)"><g><path d="M 2.328125 -3.125 L 2.328125 -1.171875 L 5.71875 -1.171875 L 5.71875 0 L 0.921875 0 L 0.921875 -7.109375 L 5.640625 -7.109375 L 5.640625 -5.921875 L 2.328125 -5.921875 L 2.328125 -4.265625 L 5.21875 -4.265625 L 5.21875 -3.125 Z M 2.328125 -3.125 "/></g></g></g><g fill="#ffffff" fill-opacity="1"><g transform="translate(58.774801, 49.423655)"><g><path d="M 2.5 0.109375 C 2.132812 0.109375 1.800781 0.0664062 1.5 -0.015625 C 1.195312 -0.109375 0.9375 -0.226562 0.71875 -0.375 C 0.507812 -0.53125 0.351562 -0.707031 0.25 -0.90625 L 0.984375 -1.703125 L 1.09375 -1.703125 C 1.269531 -1.460938 1.476562 -1.28125 1.71875 -1.15625 C 1.96875 -1.039062 2.234375 -0.984375 2.515625 -0.984375 C 2.773438 -0.984375 2.972656 -1.03125 3.109375 -1.125 C 3.242188 -1.21875 3.3125 -1.351562 3.3125 -1.53125 C 3.3125 -1.664062 3.257812 -1.78125 3.15625 -1.875 C 3.0625 -1.96875 2.910156 -2.039062 2.703125 -2.09375 L 2 -2.265625 C 1.46875 -2.390625 1.078125 -2.582031 0.828125 -2.84375 C 0.585938 -3.101562 0.46875 -3.429688 0.46875 -3.828125 C 0.46875 -4.160156 0.550781 -4.453125 0.71875 -4.703125 C 0.882812 -4.953125 1.125 -5.140625 1.4375 -5.265625 C 1.75 -5.398438 2.109375 -5.46875 2.515625 -5.46875 C 2.992188 -5.46875 3.390625 -5.394531 3.703125 -5.25 C 4.023438 -5.113281 4.28125 -4.925781 4.46875 -4.6875 L 3.734375 -3.921875 L 3.640625 -3.921875 C 3.492188 -4.085938 3.328125 -4.207031 3.140625 -4.28125 C 2.953125 -4.363281 2.742188 -4.40625 2.515625 -4.40625 C 1.984375 -4.40625 1.71875 -4.238281 1.71875 -3.90625 C 1.71875 -3.769531 1.765625 -3.65625 1.859375 -3.5625 C 1.960938 -3.476562 2.140625 -3.410156 2.390625 -3.359375 L 3.046875 -3.203125 C 3.597656 -3.085938 4 -2.898438 4.25 -2.640625 C 4.5 -2.390625 4.625 -2.046875 4.625 -1.609375 C 4.625 -1.265625 4.535156 -0.960938 4.359375 -0.703125 C 4.191406 -0.453125 3.945312 -0.253906 3.625 -0.109375 C 3.3125 0.0351562 2.9375 0.109375 2.5 0.109375 Z M 2.5 0.109375 "/></g></g></g><g fill="#ffffff" fill-opacity="1"><g transform="translate(66.712455, 49.423655)"><g><path d="M 3.703125 -1.28125 L 4.046875 -0.28125 C 3.898438 -0.164062 3.71875 -0.0703125 3.5 0 C 3.28125 0.0703125 3.03125 0.109375 2.75 0.109375 C 2.164062 0.109375 1.722656 -0.046875 1.421875 -0.359375 C 1.128906 -0.679688 0.984375 -1.144531 0.984375 -1.75 L 0.984375 -4.296875 L 0.15625 -4.296875 L 0.15625 -5.359375 L 0.984375 -5.359375 L 0.984375 -6.40625 L 2.328125 -6.625 L 2.328125 -5.359375 L 3.84375 -5.359375 L 3.84375 -4.296875 L 2.328125 -4.296875 L 2.328125 -1.84375 C 2.328125 -1.582031 2.378906 -1.390625 2.484375 -1.265625 C 2.597656 -1.140625 2.757812 -1.078125 2.96875 -1.078125 C 3.207031 -1.078125 3.414062 -1.144531 3.59375 -1.28125 Z M 3.703125 -1.28125 "/></g></g></g><g fill="#ffffff" fill-opacity="1"><g transform="translate(73.872715, 49.423655)"><g><path d="M 2.09375 0.109375 C 1.75 0.109375 1.445312 0.046875 1.1875 -0.078125 C 0.9375 -0.210938 0.742188 -0.398438 0.609375 -0.640625 C 0.472656 -0.890625 0.40625 -1.1875 0.40625 -1.53125 C 0.40625 -1.84375 0.472656 -2.109375 0.609375 -2.328125 C 0.742188 -2.546875 0.953125 -2.722656 1.234375 -2.859375 C 1.523438 -2.992188 1.898438 -3.097656 2.359375 -3.171875 C 2.679688 -3.222656 2.925781 -3.28125 3.09375 -3.34375 C 3.257812 -3.40625 3.367188 -3.472656 3.421875 -3.546875 C 3.484375 -3.628906 3.515625 -3.726562 3.515625 -3.84375 C 3.515625 -4.019531 3.453125 -4.148438 3.328125 -4.234375 C 3.210938 -4.328125 3.015625 -4.375 2.734375 -4.375 C 2.441406 -4.375 2.160156 -4.304688 1.890625 -4.171875 C 1.617188 -4.046875 1.382812 -3.875 1.1875 -3.65625 L 1.09375 -3.65625 L 0.53125 -4.5 C 0.800781 -4.800781 1.128906 -5.035156 1.515625 -5.203125 C 1.910156 -5.378906 2.34375 -5.46875 2.8125 -5.46875 C 3.519531 -5.46875 4.03125 -5.316406 4.34375 -5.015625 C 4.664062 -4.710938 4.828125 -4.285156 4.828125 -3.734375 L 4.828125 -1.40625 C 4.828125 -1.164062 4.929688 -1.046875 5.140625 -1.046875 C 5.222656 -1.046875 5.300781 -1.054688 5.375 -1.078125 L 5.453125 -1.0625 L 5.546875 -0.125 C 5.472656 -0.0703125 5.367188 -0.03125 5.234375 0 C 5.097656 0.0195312 4.953125 0.03125 4.796875 0.03125 C 4.472656 0.03125 4.222656 -0.0234375 4.046875 -0.140625 C 3.867188 -0.265625 3.738281 -0.457031 3.65625 -0.71875 L 3.5625 -0.734375 C 3.289062 -0.171875 2.800781 0.109375 2.09375 0.109375 Z M 2.515625 -0.90625 C 2.828125 -0.90625 3.078125 -1.007812 3.265625 -1.21875 C 3.453125 -1.425781 3.546875 -1.71875 3.546875 -2.09375 L 3.546875 -2.640625 L 3.453125 -2.65625 C 3.367188 -2.59375 3.257812 -2.535156 3.125 -2.484375 C 3 -2.441406 2.8125 -2.398438 2.5625 -2.359375 C 2.269531 -2.304688 2.0625 -2.222656 1.9375 -2.109375 C 1.8125 -1.992188 1.75 -1.828125 1.75 -1.609375 C 1.75 -1.378906 1.816406 -1.203125 1.953125 -1.078125 C 2.085938 -0.960938 2.273438 -0.90625 2.515625 -0.90625 Z M 2.515625 -0.90625 "/></g></g></g><g fill="#ffffff" fill-opacity="1"><g transform="translate(82.456574, 49.423655)"><g><path d="M 3.703125 -1.28125 L 4.046875 -0.28125 C 3.898438 -0.164062 3.71875 -0.0703125 3.5 0 C 3.28125 0.0703125 3.03125 0.109375 2.75 0.109375 C 2.164062 0.109375 1.722656 -0.046875 1.421875 -0.359375 C 1.128906 -0.679688 0.984375 -1.144531 0.984375 -1.75 L 0.984375 -4.296875 L 0.15625 -4.296875 L 0.15625 -5.359375 L 0.984375 -5.359375 L 0.984375 -6.40625 L 2.328125 -6.625 L 2.328125 -5.359375 L 3.84375 -5.359375 L 3.84375 -4.296875 L 2.328125 -4.296875 L 2.328125 -1.84375 C 2.328125 -1.582031 2.378906 -1.390625 2.484375 -1.265625 C 2.597656 -1.140625 2.757812 -1.078125 2.96875 -1.078125 C 3.207031 -1.078125 3.414062 -1.144531 3.59375 -1.28125 Z M 3.703125 -1.28125 "/></g></g></g><g fill="#ffffff" fill-opacity="1"><g transform="translate(89.553664, 49.423655)"><g><path d="M 5.296875 -2.375 L 1.859375 -2.375 C 1.890625 -1.90625 2.019531 -1.566406 2.25 -1.359375 C 2.476562 -1.148438 2.785156 -1.046875 3.171875 -1.046875 C 3.484375 -1.046875 3.734375 -1.101562 3.921875 -1.21875 C 4.117188 -1.332031 4.273438 -1.503906 4.390625 -1.734375 L 4.484375 -1.734375 L 5.390625 -1.15625 C 5.210938 -0.78125 4.945312 -0.472656 4.59375 -0.234375 C 4.238281 -0.00390625 3.765625 0.109375 3.171875 0.109375 C 2.617188 0.109375 2.140625 0.00390625 1.734375 -0.203125 C 1.335938 -0.421875 1.03125 -0.738281 0.8125 -1.15625 C 0.59375 -1.570312 0.484375 -2.078125 0.484375 -2.671875 C 0.484375 -3.285156 0.597656 -3.800781 0.828125 -4.21875 C 1.054688 -4.632812 1.363281 -4.945312 1.75 -5.15625 C 2.144531 -5.363281 2.585938 -5.46875 3.078125 -5.46875 C 3.835938 -5.46875 4.414062 -5.265625 4.8125 -4.859375 C 5.21875 -4.453125 5.421875 -3.863281 5.421875 -3.09375 C 5.421875 -2.8125 5.414062 -2.59375 5.40625 -2.4375 Z M 4.140625 -3.25 C 4.128906 -3.65625 4.035156 -3.953125 3.859375 -4.140625 C 3.679688 -4.328125 3.421875 -4.421875 3.078125 -4.421875 C 2.398438 -4.421875 2 -4.03125 1.875 -3.25 Z M 4.140625 -3.25 "/></g></g></g><g fill="#ffffff" fill-opacity="1"><g transform="translate(98.190951, 49.423655)"><g><path d="M 1.375 0.046875 C 1.195312 0.046875 1.039062 0.0078125 0.90625 -0.0625 C 0.78125 -0.132812 0.679688 -0.226562 0.609375 -0.34375 C 0.546875 -0.46875 0.515625 -0.609375 0.515625 -0.765625 C 0.515625 -0.921875 0.546875 -1.0625 0.609375 -1.1875 C 0.679688 -1.3125 0.78125 -1.40625 0.90625 -1.46875 C 1.039062 -1.539062 1.195312 -1.578125 1.375 -1.578125 C 1.550781 -1.578125 1.703125 -1.539062 1.828125 -1.46875 C 1.960938 -1.40625 2.0625 -1.3125 2.125 -1.1875 C 2.195312 -1.0625 2.234375 -0.921875 2.234375 -0.765625 C 2.234375 -0.535156 2.15625 -0.34375 2 -0.1875 C 1.84375 -0.03125 1.632812 0.046875 1.375 0.046875 Z M 1.375 0.046875 "/></g></g></g><g fill="#ffffff" fill-opacity="1"><g transform="translate(103.932465, 49.423655)"><g/></g></g><g fill="#ffffff" fill-opacity="1"><g transform="translate(109.28167, 49.423655)"><g><path d="M 2.5625 0.109375 C 2.175781 0.109375 1.820312 0.046875 1.5 -0.078125 C 1.1875 -0.210938 0.914062 -0.378906 0.6875 -0.578125 C 0.46875 -0.785156 0.300781 -1.015625 0.1875 -1.265625 L 0.75 -1.796875 L 0.875 -1.796875 C 1.070312 -1.398438 1.316406 -1.109375 1.609375 -0.921875 C 1.898438 -0.742188 2.253906 -0.65625 2.671875 -0.65625 C 3.203125 -0.65625 3.617188 -0.757812 3.921875 -0.96875 C 4.234375 -1.1875 4.425781 -1.472656 4.5 -1.828125 C 4.53125 -1.929688 4.546875 -2.03125 4.546875 -2.125 C 4.546875 -2.394531 4.453125 -2.625 4.265625 -2.8125 C 4.085938 -3.007812 3.816406 -3.15625 3.453125 -3.25 L 2.65625 -3.453125 C 2.195312 -3.578125 1.847656 -3.78125 1.609375 -4.0625 C 1.378906 -4.351562 1.265625 -4.703125 1.265625 -5.109375 C 1.265625 -5.265625 1.28125 -5.425781 1.3125 -5.59375 C 1.382812 -5.90625 1.523438 -6.179688 1.734375 -6.421875 C 1.941406 -6.671875 2.226562 -6.863281 2.59375 -7 C 2.96875 -7.132812 3.421875 -7.203125 3.953125 -7.203125 C 4.410156 -7.203125 4.820312 -7.117188 5.1875 -6.953125 C 5.550781 -6.785156 5.828125 -6.550781 6.015625 -6.25 L 5.484375 -5.703125 L 5.375 -5.703125 C 5.050781 -6.222656 4.53125 -6.484375 3.8125 -6.484375 C 3.320312 -6.484375 2.929688 -6.394531 2.640625 -6.21875 C 2.359375 -6.050781 2.1875 -5.800781 2.125 -5.46875 C 2.09375 -5.363281 2.078125 -5.257812 2.078125 -5.15625 C 2.078125 -4.65625 2.398438 -4.328125 3.046875 -4.171875 L 3.765625 -3.984375 C 4.304688 -3.847656 4.710938 -3.632812 4.984375 -3.34375 C 5.265625 -3.050781 5.40625 -2.691406 5.40625 -2.265625 C 5.40625 -2.097656 5.382812 -1.929688 5.34375 -1.765625 C 5.226562 -1.179688 4.9375 -0.722656 4.46875 -0.390625 C 4.007812 -0.0546875 3.375 0.109375 2.5625 0.109375 Z M 2.5625 0.109375 "/></g></g></g><g fill="#ffffff" fill-opacity="1"><g transform="translate(118.365982, 49.423655)"><g><path d="M 2.234375 -6.390625 C 2.066406 -6.390625 1.929688 -6.441406 1.828125 -6.546875 C 1.722656 -6.660156 1.671875 -6.796875 1.671875 -6.953125 C 1.671875 -7.117188 1.722656 -7.253906 1.828125 -7.359375 C 1.929688 -7.460938 2.066406 -7.515625 2.234375 -7.515625 C 2.398438 -7.515625 2.535156 -7.460938 2.640625 -7.359375 C 2.742188 -7.253906 2.796875 -7.117188 2.796875 -6.953125 C 2.796875 -6.796875 2.742188 -6.660156 2.640625 -6.546875 C 2.535156 -6.441406 2.398438 -6.390625 2.234375 -6.390625 Z M 0.359375 0 L 1.5 -5.359375 L 2.28125 -5.359375 L 1.15625 0 Z M 0.359375 0 "/></g></g></g><g fill="#ffffff" fill-opacity="1"><g transform="translate(124.020038, 49.423655)"><g><path d="M 0.359375 0 L 1.5 -5.359375 L 2.25 -5.359375 L 2.078125 -4.5625 L 2.1875 -4.546875 C 2.351562 -4.835938 2.585938 -5.0625 2.890625 -5.21875 C 3.203125 -5.382812 3.539062 -5.46875 3.90625 -5.46875 C 4.3125 -5.46875 4.613281 -5.378906 4.8125 -5.203125 C 5.019531 -5.035156 5.164062 -4.789062 5.25 -4.46875 L 5.34375 -4.46875 C 5.601562 -4.800781 5.875 -5.050781 6.15625 -5.21875 C 6.445312 -5.382812 6.789062 -5.46875 7.1875 -5.46875 C 7.625 -5.46875 7.957031 -5.351562 8.1875 -5.125 C 8.425781 -4.894531 8.546875 -4.578125 8.546875 -4.171875 C 8.546875 -4.015625 8.523438 -3.84375 8.484375 -3.65625 L 7.71875 0 L 6.921875 0 L 7.703125 -3.640625 C 7.722656 -3.773438 7.734375 -3.890625 7.734375 -3.984375 C 7.734375 -4.234375 7.660156 -4.425781 7.515625 -4.5625 C 7.367188 -4.695312 7.148438 -4.765625 6.859375 -4.765625 C 6.441406 -4.765625 6.066406 -4.609375 5.734375 -4.296875 C 5.410156 -3.992188 5.175781 -3.484375 5.03125 -2.765625 L 4.4375 0 L 3.640625 0 L 4.421875 -3.640625 C 4.441406 -3.773438 4.453125 -3.890625 4.453125 -3.984375 C 4.453125 -4.234375 4.378906 -4.425781 4.234375 -4.5625 C 4.097656 -4.695312 3.882812 -4.765625 3.59375 -4.765625 C 3.164062 -4.765625 2.785156 -4.613281 2.453125 -4.3125 C 2.128906 -4.019531 1.898438 -3.535156 1.765625 -2.859375 L 1.15625 0 Z M 0.359375 0 "/></g></g></g><g fill="#ffffff" fill-opacity="1"><g transform="translate(136.150762, 49.423655)"><g><path d="M -0.09375 2.171875 L 1.5 -5.359375 L 2.296875 -5.359375 L 2.125 -4.578125 L 2.21875 -4.5625 C 2.394531 -4.820312 2.648438 -5.035156 2.984375 -5.203125 C 3.316406 -5.378906 3.691406 -5.46875 4.109375 -5.46875 C 4.453125 -5.46875 4.753906 -5.390625 5.015625 -5.234375 C 5.285156 -5.078125 5.492188 -4.847656 5.640625 -4.546875 C 5.796875 -4.242188 5.875 -3.875 5.875 -3.4375 C 5.875 -3.144531 5.835938 -2.832031 5.765625 -2.5 C 5.648438 -1.9375 5.457031 -1.457031 5.1875 -1.0625 C 4.925781 -0.675781 4.601562 -0.382812 4.21875 -0.1875 C 3.832031 0.0078125 3.40625 0.109375 2.9375 0.109375 C 2.582031 0.109375 2.269531 0.0351562 2 -0.109375 C 1.726562 -0.253906 1.535156 -0.46875 1.421875 -0.75 L 1.3125 -0.71875 L 0.6875 2.171875 Z M 2.921875 -0.609375 C 3.992188 -0.609375 4.679688 -1.300781 4.984375 -2.6875 C 5.035156 -2.96875 5.0625 -3.222656 5.0625 -3.453125 C 5.0625 -3.898438 4.953125 -4.226562 4.734375 -4.4375 C 4.515625 -4.644531 4.207031 -4.75 3.8125 -4.75 C 3.488281 -4.75 3.1875 -4.675781 2.90625 -4.53125 C 2.632812 -4.394531 2.394531 -4.175781 2.1875 -3.875 C 1.988281 -3.582031 1.84375 -3.21875 1.75 -2.78125 C 1.6875 -2.476562 1.65625 -2.207031 1.65625 -1.96875 C 1.65625 -1.5 1.765625 -1.15625 1.984375 -0.9375 C 2.210938 -0.71875 2.523438 -0.609375 2.921875 -0.609375 Z M 2.921875 -0.609375 "/></g></g></g><g fill="#ffffff" fill-opacity="1"><g transform="translate(145.541168, 49.423655)"><g><path d="M 1.546875 0.09375 C 1.242188 0.09375 1.003906 0.0078125 0.828125 -0.15625 C 0.660156 -0.332031 0.578125 -0.578125 0.578125 -0.890625 C 0.578125 -1.015625 0.59375 -1.144531 0.625 -1.28125 L 1.9375 -7.515625 L 2.734375 -7.515625 L 1.40625 -1.234375 C 1.382812 -1.148438 1.375 -1.082031 1.375 -1.03125 C 1.375 -0.894531 1.410156 -0.789062 1.484375 -0.71875 C 1.554688 -0.644531 1.660156 -0.609375 1.796875 -0.609375 C 1.878906 -0.609375 1.984375 -0.625 2.109375 -0.65625 L 2.171875 -0.640625 L 2.171875 -0.015625 C 2.023438 0.0546875 1.816406 0.09375 1.546875 0.09375 Z M 1.546875 0.09375 "/></g></g></g><g fill="#ffffff" fill-opacity="1"><g transform="translate(151.452731, 49.423655)"><g><path d="M 2.234375 -6.390625 C 2.066406 -6.390625 1.929688 -6.441406 1.828125 -6.546875 C 1.722656 -6.660156 1.671875 -6.796875 1.671875 -6.953125 C 1.671875 -7.117188 1.722656 -7.253906 1.828125 -7.359375 C 1.929688 -7.460938 2.066406 -7.515625 2.234375 -7.515625 C 2.398438 -7.515625 2.535156 -7.460938 2.640625 -7.359375 C 2.742188 -7.253906 2.796875 -7.117188 2.796875 -6.953125 C 2.796875 -6.796875 2.742188 -6.660156 2.640625 -6.546875 C 2.535156 -6.441406 2.398438 -6.390625 2.234375 -6.390625 Z M 0.359375 0 L 1.5 -5.359375 L 2.28125 -5.359375 L 1.15625 0 Z M 0.359375 0 "/></g></g></g><g fill="#ffffff" fill-opacity="1"><g transform="translate(157.106787, 49.423655)"><g><path d="M 0.625 0 L 1.625 -4.71875 L 0.6875 -4.71875 L 0.828125 -5.359375 L 1.765625 -5.359375 C 1.753906 -5.585938 1.769531 -5.8125 1.8125 -6.03125 C 1.925781 -6.570312 2.148438 -6.96875 2.484375 -7.21875 C 2.828125 -7.476562 3.289062 -7.609375 3.875 -7.609375 C 4.15625 -7.609375 4.394531 -7.570312 4.59375 -7.5 C 4.789062 -7.4375 4.941406 -7.332031 5.046875 -7.1875 L 4.625 -6.71875 L 4.53125 -6.6875 C 4.351562 -6.851562 4.09375 -6.9375 3.75 -6.9375 C 3.425781 -6.9375 3.171875 -6.859375 2.984375 -6.703125 C 2.796875 -6.546875 2.671875 -6.316406 2.609375 -6.015625 C 2.566406 -5.816406 2.550781 -5.597656 2.5625 -5.359375 L 4.265625 -5.359375 L 4.125 -4.71875 L 2.421875 -4.71875 L 1.421875 0 Z M 0.625 0 "/></g></g></g><g fill="#ffffff" fill-opacity="1"><g transform="translate(163.922072, 49.423655)"><g><path d="M 2.234375 -6.390625 C 2.066406 -6.390625 1.929688 -6.441406 1.828125 -6.546875 C 1.722656 -6.660156 1.671875 -6.796875 1.671875 -6.953125 C 1.671875 -7.117188 1.722656 -7.253906 1.828125 -7.359375 C 1.929688 -7.460938 2.066406 -7.515625 2.234375 -7.515625 C 2.398438 -7.515625 2.535156 -7.460938 2.640625 -7.359375 C 2.742188 -7.253906 2.796875 -7.117188 2.796875 -6.953125 C 2.796875 -6.796875 2.742188 -6.660156 2.640625 -6.546875 C 2.535156 -6.441406 2.398438 -6.390625 2.234375 -6.390625 Z M 0.359375 0 L 1.5 -5.359375 L 2.28125 -5.359375 L 1.15625 0 Z M 0.359375 0 "/></g></g></g><g fill="#ffffff" fill-opacity="1"><g transform="translate(169.576129, 49.423655)"><g><path d="M 5.21875 -3.765625 C 5.132812 -3.285156 4.875 -2.898438 4.4375 -2.609375 C 4 -2.328125 3.375 -2.1875 2.5625 -2.1875 C 2.175781 -2.1875 1.773438 -2.21875 1.359375 -2.28125 C 1.347656 -2.175781 1.34375 -2.066406 1.34375 -1.953125 C 1.34375 -1.515625 1.453125 -1.179688 1.671875 -0.953125 C 1.890625 -0.722656 2.210938 -0.609375 2.640625 -0.609375 C 3.015625 -0.609375 3.328125 -0.675781 3.578125 -0.8125 C 3.828125 -0.957031 4.050781 -1.179688 4.25 -1.484375 L 4.359375 -1.484375 L 4.84375 -1.140625 C 4.613281 -0.734375 4.304688 -0.421875 3.921875 -0.203125 C 3.546875 0.00390625 3.070312 0.109375 2.5 0.109375 C 2.101562 0.109375 1.757812 0.0195312 1.46875 -0.15625 C 1.175781 -0.34375 0.945312 -0.597656 0.78125 -0.921875 C 0.625 -1.253906 0.546875 -1.640625 0.546875 -2.078125 C 0.546875 -2.347656 0.578125 -2.625 0.640625 -2.90625 C 0.753906 -3.445312 0.945312 -3.910156 1.21875 -4.296875 C 1.488281 -4.679688 1.816406 -4.972656 2.203125 -5.171875 C 2.597656 -5.367188 3.03125 -5.46875 3.5 -5.46875 C 3.882812 -5.46875 4.207031 -5.398438 4.46875 -5.265625 C 4.726562 -5.140625 4.921875 -4.96875 5.046875 -4.75 C 5.179688 -4.53125 5.25 -4.296875 5.25 -4.046875 C 5.25 -3.953125 5.238281 -3.859375 5.21875 -3.765625 Z M 3.359375 -4.796875 C 2.878906 -4.796875 2.488281 -4.648438 2.1875 -4.359375 C 1.882812 -4.066406 1.648438 -3.597656 1.484375 -2.953125 C 1.859375 -2.910156 2.195312 -2.890625 2.5 -2.890625 C 3.132812 -2.890625 3.601562 -2.96875 3.90625 -3.125 C 4.21875 -3.289062 4.398438 -3.53125 4.453125 -3.84375 C 4.460938 -3.894531 4.46875 -3.953125 4.46875 -4.015625 C 4.46875 -4.242188 4.367188 -4.429688 4.171875 -4.578125 C 3.972656 -4.722656 3.703125 -4.796875 3.359375 -4.796875 Z M 3.359375 -4.796875 "/></g></g></g><g fill="#ffffff" fill-opacity="1"><g transform="translate(178.286314, 49.423655)"><g><path d="M 2.28125 0.109375 C 1.945312 0.109375 1.644531 0.03125 1.375 -0.125 C 1.113281 -0.28125 0.90625 -0.507812 0.75 -0.8125 C 0.59375 -1.113281 0.515625 -1.484375 0.515625 -1.921875 C 0.515625 -2.210938 0.550781 -2.523438 0.625 -2.859375 C 0.75 -3.421875 0.941406 -3.894531 1.203125 -4.28125 C 1.472656 -4.675781 1.796875 -4.972656 2.171875 -5.171875 C 2.554688 -5.367188 2.988281 -5.46875 3.46875 -5.46875 C 3.8125 -5.46875 4.117188 -5.394531 4.390625 -5.25 C 4.671875 -5.101562 4.867188 -4.882812 4.984375 -4.59375 L 5.078125 -4.609375 L 5.703125 -7.515625 L 6.5 -7.515625 L 4.890625 0 L 4.109375 0 L 4.265625 -0.78125 L 4.171875 -0.796875 C 3.992188 -0.535156 3.738281 -0.316406 3.40625 -0.140625 C 3.082031 0.0234375 2.707031 0.109375 2.28125 0.109375 Z M 2.578125 -0.609375 C 2.910156 -0.609375 3.210938 -0.675781 3.484375 -0.8125 C 3.765625 -0.957031 4.003906 -1.175781 4.203125 -1.46875 C 4.410156 -1.769531 4.5625 -2.140625 4.65625 -2.578125 C 4.71875 -2.878906 4.75 -3.148438 4.75 -3.390625 C 4.75 -3.859375 4.632812 -4.203125 4.40625 -4.421875 C 4.175781 -4.640625 3.863281 -4.75 3.46875 -4.75 C 2.394531 -4.75 1.710938 -4.054688 1.421875 -2.671875 C 1.359375 -2.390625 1.328125 -2.132812 1.328125 -1.90625 C 1.328125 -1.457031 1.4375 -1.128906 1.65625 -0.921875 C 1.875 -0.710938 2.179688 -0.609375 2.578125 -0.609375 Z M 2.578125 -0.609375 "/></g></g></g><g fill="#ffffff" fill-opacity="1"><g transform="translate(187.681584, 49.423655)"><g><path d="M 1.875 -2.359375 L 1.0625 -2.359375 L 2.0625 -7.109375 L 2.875 -7.109375 Z M 1.078125 0.046875 C 0.890625 0.046875 0.738281 -0.00390625 0.625 -0.109375 C 0.519531 -0.210938 0.46875 -0.347656 0.46875 -0.515625 C 0.46875 -0.679688 0.519531 -0.816406 0.625 -0.921875 C 0.738281 -1.035156 0.890625 -1.09375 1.078125 -1.09375 C 1.265625 -1.09375 1.410156 -1.039062 1.515625 -0.9375 C 1.617188 -0.832031 1.671875 -0.695312 1.671875 -0.53125 C 1.671875 -0.351562 1.613281 -0.210938 1.5 -0.109375 C 1.394531 -0.00390625 1.253906 0.046875 1.078125 0.046875 Z M 1.078125 0.046875 "/></g></g></g></svg>